# xmcd
#
# Track frame offsets:
#	150
#	15451
#	37017
#	61997
#	78578
#	103781
#	124668
#	153053
#	171089
#	187611
#	201020
#	224709
#
# Disc length: 3206 seconds
#
# Revision: 1
# Processed by: cddbd v1.4PL0 Copyright (c) Steve Scherf et al.
# Submitted via: CDmax 1.9
#
DISCID=990c840c
DTITLE=Eddie 'Guitar' Burns - Lonesome Feeling
DYEAR=1993
DGENRE=Blues
TTITLE0=Just A Little Bit
TTITLE1=Lonesome Feeling
TTITLE2=I Dig You Baby
TTITLE3=In The State Highway
TTITLE4=You Got To Love Me With A Feeling
TTITLE5=Woke Up This Morning
TTITLE6=New Inflation Blues
TTITLE7=This Old House
TTITLE8=What Do You Want To Do
TTITLE9=That's My Woman
TTITLE10=How Could You Leave Me
TTITLE11=Wee Baby Blues
EXTD=
EXTT0=
EXTT1=
EXTT2=
EXTT3=
EXTT4=
EXTT5=
EXTT6=
EXTT7=
EXTT8=
EXTT9=
EXTT10=
EXTT11=
PLAYORDER=
